<svg width="198" height="152" viewBox="0 0 198 152" fill="none" xmlns="http://www.w3.org/2000/svg">
<path d="M0 8C0 3.58172 3.58172 0 8 0H190C194.418 0 198 3.58172 198 8V144C198 148.418 194.418 152 190 152H8C3.58172 152 0 148.418 0 144V8Z" fill="#F7FAFC"/>
<path d="M20.7217 12.0059L18.0488 22H16.8799L14.8975 15.2734C14.8382 15.082 14.7812 14.8906 14.7266 14.6992C14.6764 14.5033 14.6286 14.3187 14.583 14.1455C14.5374 13.9678 14.4987 13.8128 14.4668 13.6807C14.4395 13.5439 14.4189 13.4414 14.4053 13.373C14.3962 13.4414 14.3779 13.5417 14.3506 13.6738C14.3278 13.806 14.2959 13.9587 14.2549 14.1318C14.2184 14.305 14.1729 14.4896 14.1182 14.6855C14.068 14.8815 14.0133 15.0798 13.9541 15.2803L12.0264 22H10.8574L8.20508 12.0059H9.41504L11.0215 18.2744C11.0762 18.484 11.1263 18.6914 11.1719 18.8965C11.222 19.097 11.2653 19.293 11.3018 19.4844C11.3428 19.6758 11.3792 19.8626 11.4111 20.0449C11.443 20.2272 11.4727 20.4049 11.5 20.5781C11.5228 20.4004 11.5524 20.2158 11.5889 20.0244C11.6253 19.8285 11.6641 19.6302 11.7051 19.4297C11.7507 19.2292 11.7985 19.0264 11.8486 18.8213C11.9033 18.6162 11.9603 18.4111 12.0195 18.2061L13.8174 12.0059H15.0137L16.8867 18.2539C16.9505 18.4681 17.0098 18.68 17.0645 18.8896C17.1191 19.0993 17.167 19.3044 17.208 19.5049C17.2536 19.7008 17.2923 19.89 17.3242 20.0723C17.3607 20.25 17.3926 20.4186 17.4199 20.5781C17.4518 20.3548 17.4906 20.1201 17.5361 19.874C17.5817 19.6279 17.6341 19.3704 17.6934 19.1016C17.7572 18.8327 17.8255 18.5547 17.8984 18.2676L19.5049 12.0059H20.7217ZM25.5062 14.3711C25.6566 14.3711 25.8138 14.3802 25.9779 14.3984C26.1419 14.4121 26.2878 14.4326 26.4154 14.46L26.2718 15.5127C26.1488 15.4808 26.012 15.4557 25.8616 15.4375C25.7113 15.4193 25.57 15.4102 25.4378 15.4102C25.137 15.4102 24.8522 15.4717 24.5833 15.5947C24.319 15.7132 24.0866 15.8864 23.8861 16.1143C23.6855 16.3376 23.5283 16.6087 23.4144 16.9277C23.3005 17.2422 23.2435 17.5931 23.2435 17.9805V22H22.1019V14.5078H23.0452L23.1683 15.8887H23.2161C23.3711 15.6107 23.5579 15.3577 23.7767 15.1299C23.9954 14.8975 24.2484 14.7129 24.5355 14.5762C24.8271 14.4395 25.1507 14.3711 25.5062 14.3711ZM28.9372 14.5078V22H27.8024V14.5078H28.9372ZM28.3835 11.7051C28.5703 11.7051 28.7298 11.7666 28.862 11.8896C28.9987 12.0081 29.067 12.195 29.067 12.4502C29.067 12.7008 28.9987 12.8877 28.862 13.0107C28.7298 13.1338 28.5703 13.1953 28.3835 13.1953C28.1875 13.1953 28.0234 13.1338 27.8913 13.0107C27.7637 12.8877 27.6999 12.7008 27.6999 12.4502C27.6999 12.195 27.7637 12.0081 27.8913 11.8896C28.0234 11.7666 28.1875 11.7051 28.3835 11.7051ZM33.7353 21.207C33.9222 21.207 34.1136 21.1911 34.3096 21.1592C34.5055 21.1273 34.665 21.0885 34.7881 21.043V21.9248C34.6559 21.984 34.4713 22.0342 34.2344 22.0752C34.0019 22.1162 33.7741 22.1367 33.5508 22.1367C33.1543 22.1367 32.7943 22.0684 32.4707 21.9316C32.1471 21.7904 31.8874 21.5534 31.6914 21.2207C31.5 20.888 31.4043 20.4277 31.4043 19.8398V15.3965H30.3379V14.8428L31.4111 14.3984L31.8623 12.7715H32.5459V14.5078H34.7402V15.3965H32.5459V19.8057C32.5459 20.2751 32.653 20.626 32.8672 20.8584C33.0859 21.0908 33.3753 21.207 33.7353 21.207ZM39.1624 14.3711C39.8004 14.3711 40.3473 14.5124 40.803 14.7949C41.2588 15.0775 41.6074 15.474 41.8489 15.9844C42.0905 16.4902 42.2112 17.0827 42.2112 17.7617V18.4658H37.0364C37.0501 19.3454 37.2689 20.0153 37.6927 20.4756C38.1165 20.9359 38.7135 21.166 39.4837 21.166C39.9577 21.166 40.3769 21.1227 40.7415 21.0361C41.1061 20.9495 41.4844 20.8219 41.8763 20.6533V21.6514C41.498 21.82 41.122 21.943 40.7484 22.0205C40.3792 22.098 39.9417 22.1367 39.4359 22.1367C38.7158 22.1367 38.0869 21.9909 37.5491 21.6992C37.0159 21.403 36.6012 20.9701 36.305 20.4004C36.0088 19.8307 35.8607 19.1335 35.8607 18.3086C35.8607 17.502 35.9951 16.8047 36.264 16.2168C36.5374 15.6243 36.9202 15.1686 37.4124 14.8496C37.9092 14.5306 38.4925 14.3711 39.1624 14.3711ZM39.1487 15.3008C38.5426 15.3008 38.0595 15.499 37.6995 15.8955C37.3395 16.292 37.1253 16.8457 37.0569 17.5566H41.0218C41.0172 17.11 40.9466 16.7181 40.8099 16.3809C40.6777 16.0391 40.4749 15.7747 40.2015 15.5879C39.928 15.3965 39.5771 15.3008 39.1487 15.3008ZM46.5371 14.5078H47.7539L49.4082 18.8555C49.5039 19.1107 49.5927 19.3568 49.6748 19.5938C49.7568 19.8262 49.8297 20.0495 49.8935 20.2637C49.9573 20.4779 50.0075 20.6852 50.0439 20.8857H50.0918C50.1556 20.6579 50.2467 20.3594 50.3652 19.9902C50.4837 19.6165 50.6113 19.236 50.748 18.8486L52.3134 14.5078H53.5371L50.2763 23.1006C50.1032 23.5609 49.9004 23.9619 49.6679 24.3037C49.4401 24.6455 49.1621 24.9076 48.834 25.0898C48.5058 25.2767 48.1093 25.3701 47.6445 25.3701C47.4303 25.3701 47.2412 25.3564 47.0771 25.3291C46.9131 25.3063 46.7718 25.279 46.6533 25.2471V24.3379C46.7536 24.3607 46.8743 24.3812 47.0156 24.3994C47.1614 24.4176 47.3118 24.4268 47.4668 24.4268C47.7493 24.4268 47.9931 24.3721 48.1982 24.2627C48.4078 24.1579 48.5879 24.0029 48.7383 23.7979C48.8886 23.5928 49.0185 23.349 49.1279 23.0664L49.5381 22.0137L46.5371 14.5078ZM61.1653 18.2402C61.1653 18.8555 61.0856 19.4046 60.9261 19.8877C60.7666 20.3708 60.5364 20.7786 60.2356 21.1113C59.9349 21.444 59.5703 21.6992 59.1419 21.877C58.7181 22.0501 58.2373 22.1367 57.6995 22.1367C57.1982 22.1367 56.7379 22.0501 56.3186 21.877C55.9039 21.6992 55.5439 21.444 55.2386 21.1113C54.9378 20.7786 54.7031 20.3708 54.5345 19.8877C54.3704 19.4046 54.2884 18.8555 54.2884 18.2402C54.2884 17.4199 54.4274 16.7227 54.7054 16.1484C54.9834 15.5697 55.3798 15.1299 55.8948 14.8291C56.4144 14.5238 57.0319 14.3711 57.7474 14.3711C58.431 14.3711 59.028 14.5238 59.5384 14.8291C60.0533 15.1344 60.4521 15.5765 60.7347 16.1553C61.0218 16.7295 61.1653 17.4245 61.1653 18.2402ZM55.4642 18.2402C55.4642 18.8418 55.5439 19.3636 55.7034 19.8057C55.8629 20.2477 56.109 20.5895 56.4417 20.8311C56.7744 21.0726 57.2028 21.1934 57.7269 21.1934C58.2464 21.1934 58.6725 21.0726 59.0052 20.8311C59.3424 20.5895 59.5908 20.2477 59.7503 19.8057C59.9098 19.3636 59.9895 18.8418 59.9895 18.2402C59.9895 17.6432 59.9098 17.1283 59.7503 16.6953C59.5908 16.2578 59.3447 15.9206 59.012 15.6836C58.6793 15.4466 58.2487 15.3281 57.72 15.3281C56.9407 15.3281 56.3688 15.5856 56.0042 16.1006C55.6442 16.6156 55.4642 17.3288 55.4642 18.2402ZM69.2858 14.5078V22H68.3561L68.192 20.9473H68.1305C67.9755 21.207 67.775 21.4258 67.5289 21.6035C67.2828 21.7812 67.0048 21.9134 66.6949 22C66.3896 22.0911 66.0638 22.1367 65.7174 22.1367C65.125 22.1367 64.6282 22.041 64.2272 21.8496C63.8261 21.6582 63.5231 21.362 63.318 20.9609C63.1175 20.5599 63.0172 20.0449 63.0172 19.416V14.5078H64.1656V19.334C64.1656 19.9583 64.3069 20.4255 64.5895 20.7354C64.872 21.0407 65.3027 21.1934 65.8815 21.1934C66.4375 21.1934 66.8795 21.0885 67.2076 20.8789C67.5403 20.6693 67.7796 20.3617 67.9254 19.9561C68.0712 19.5459 68.1442 19.0446 68.1442 18.4521V14.5078H69.2858ZM75.0615 14.3711C75.2119 14.3711 75.3691 14.3802 75.5332 14.3984C75.6972 14.4121 75.8431 14.4326 75.9707 14.46L75.8271 15.5127C75.7041 15.4808 75.5673 15.4557 75.4169 15.4375C75.2666 15.4193 75.1253 15.4102 74.9931 15.4102C74.6923 15.4102 74.4075 15.4717 74.1386 15.5947C73.8743 15.7132 73.6419 15.8864 73.4414 16.1143C73.2408 16.3376 73.0836 16.6087 72.9697 16.9277C72.8557 17.2422 72.7988 17.5931 72.7988 17.9805V22H71.6572V14.5078H72.6005L72.7236 15.8887H72.7714C72.9264 15.6107 73.1132 15.3577 73.332 15.1299C73.5507 14.8975 73.8037 14.7129 74.0908 14.5762C74.3824 14.4395 74.706 14.3711 75.0615 14.3711ZM84.5143 14.3711C85.4029 14.3711 86.0751 14.5898 86.5309 15.0273C86.9866 15.4603 87.2145 16.1576 87.2145 17.1191V22H86.0934V17.1943C86.0934 16.57 85.9498 16.1029 85.6627 15.793C85.3802 15.4831 84.9449 15.3281 84.357 15.3281C83.5276 15.3281 82.9443 15.5628 82.607 16.0322C82.2698 16.5016 82.1012 17.1829 82.1012 18.0762V22H80.9664V14.5078H81.8824L82.0533 15.5879H82.1149C82.2744 15.3236 82.4772 15.1025 82.7233 14.9248C82.9693 14.7425 83.2451 14.6058 83.5504 14.5146C83.8557 14.4189 84.177 14.3711 84.5143 14.3711ZM95.9843 18.2402C95.9843 18.8555 95.9046 19.4046 95.7451 19.8877C95.5856 20.3708 95.3554 20.7786 95.0546 21.1113C94.7538 21.444 94.3893 21.6992 93.9609 21.877C93.537 22.0501 93.0563 22.1367 92.5185 22.1367C92.0172 22.1367 91.5569 22.0501 91.1376 21.877C90.7229 21.6992 90.3629 21.444 90.0576 21.1113C89.7568 20.7786 89.5221 20.3708 89.3535 19.8877C89.1894 19.4046 89.1074 18.8555 89.1074 18.2402C89.1074 17.4199 89.2464 16.7227 89.5244 16.1484C89.8023 15.5697 90.1988 15.1299 90.7138 14.8291C91.2333 14.5238 91.8509 14.3711 92.5663 14.3711C93.2499 14.3711 93.8469 14.5238 94.3574 14.8291C94.8723 15.1344 95.2711 15.5765 95.5536 16.1553C95.8408 16.7295 95.9843 17.4245 95.9843 18.2402ZM90.2831 18.2402C90.2831 18.8418 90.3629 19.3636 90.5224 19.8057C90.6819 20.2477 90.928 20.5895 91.2607 20.8311C91.5934 21.0726 92.0217 21.1934 92.5458 21.1934C93.0654 21.1934 93.4915 21.0726 93.8242 20.8311C94.1614 20.5895 94.4098 20.2477 94.5693 19.8057C94.7288 19.3636 94.8085 18.8418 94.8085 18.2402C94.8085 17.6432 94.7288 17.1283 94.5693 16.6953C94.4098 16.2578 94.1637 15.9206 93.831 15.6836C93.4983 15.4466 93.0676 15.3281 92.539 15.3281C91.7597 15.3281 91.1878 15.5856 90.8232 16.1006C90.4632 16.6156 90.2831 17.3288 90.2831 18.2402ZM100.338 21.207C100.525 21.207 100.716 21.1911 100.912 21.1592C101.108 21.1273 101.268 21.0885 101.391 21.043V21.9248C101.259 21.984 101.074 22.0342 100.837 22.0752C100.605 22.1162 100.377 22.1367 100.154 22.1367C99.7571 22.1367 99.3971 22.0684 99.0735 21.9316C98.7499 21.7904 98.4902 21.5534 98.2942 21.2207C98.1028 20.888 98.0071 20.4277 98.0071 19.8398V15.3965H96.9407V14.8428L98.0139 14.3984L98.4651 12.7715H99.1487V14.5078H101.343V15.3965H99.1487V19.8057C99.1487 20.2751 99.2558 20.626 99.47 20.8584C99.6887 21.0908 99.9781 21.207 100.338 21.207ZM105.765 14.3711C106.403 14.3711 106.95 14.5124 107.406 14.7949C107.862 15.0775 108.21 15.474 108.452 15.9844C108.693 16.4902 108.814 17.0827 108.814 17.7617V18.4658H103.639C103.653 19.3454 103.872 20.0153 104.296 20.4756C104.719 20.9359 105.316 21.166 106.087 21.166C106.56 21.166 106.98 21.1227 107.344 21.0361C107.709 20.9495 108.087 20.8219 108.479 20.6533V21.6514C108.101 21.82 107.725 21.943 107.351 22.0205C106.982 22.098 106.545 22.1367 106.039 22.1367C105.319 22.1367 104.69 21.9909 104.152 21.6992C103.619 21.403 103.204 20.9701 102.908 20.4004C102.612 19.8307 102.463 19.1335 102.463 18.3086C102.463 17.502 102.598 16.8047 102.867 16.2168C103.14 15.6243 103.523 15.1686 104.015 14.8496C104.512 14.5306 105.095 14.3711 105.765 14.3711ZM105.752 15.3008C105.145 15.3008 104.662 15.499 104.302 15.8955C103.942 16.292 103.728 16.8457 103.66 17.5566H107.625C107.62 17.11 107.549 16.7181 107.413 16.3809C107.281 16.0391 107.078 15.7747 106.804 15.5879C106.531 15.3965 106.18 15.3008 105.752 15.3008ZM112.013 20.373L112.101 20.5303C112.019 20.863 111.915 21.2184 111.787 21.5967C111.664 21.9749 111.527 22.3532 111.377 22.7314C111.231 23.1143 111.083 23.472 110.933 23.8047H110.085C110.181 23.4401 110.274 23.055 110.365 22.6494C110.456 22.2484 110.538 21.8519 110.611 21.46C110.689 21.0635 110.75 20.7012 110.796 20.373H112.013ZM126.052 14.3711C126.877 14.3711 127.499 14.5876 127.919 15.0205C128.338 15.4489 128.547 16.1393 128.547 17.0918V22H127.426V17.1465C127.426 16.5404 127.294 16.0869 127.03 15.7861C126.77 15.4808 126.383 15.3281 125.868 15.3281C125.143 15.3281 124.617 15.5378 124.289 15.957C123.961 16.3763 123.796 16.9938 123.796 17.8096V22H122.669V17.1465C122.669 16.7409 122.609 16.4036 122.491 16.1348C122.377 15.8659 122.204 15.6654 121.971 15.5332C121.743 15.3965 121.454 15.3281 121.103 15.3281C120.606 15.3281 120.208 15.4307 119.907 15.6357C119.606 15.8408 119.387 16.1462 119.251 16.5518C119.118 16.9528 119.052 17.4473 119.052 18.0352V22H117.918V14.5078H118.834L119.004 15.5674H119.066C119.216 15.3076 119.406 15.0889 119.633 14.9111C119.861 14.7334 120.116 14.599 120.399 14.5078C120.682 14.4167 120.982 14.3711 121.301 14.3711C121.871 14.3711 122.347 14.4782 122.73 14.6924C123.117 14.902 123.398 15.2233 123.571 15.6562H123.632C123.878 15.2233 124.216 14.902 124.644 14.6924C125.073 14.4782 125.542 14.3711 126.052 14.3711ZM133.735 14.3711C134.373 14.3711 134.92 14.5124 135.376 14.7949C135.832 15.0775 136.18 15.474 136.422 15.9844C136.663 16.4902 136.784 17.0827 136.784 17.7617V18.4658H131.609C131.623 19.3454 131.842 20.0153 132.266 20.4756C132.689 20.9359 133.286 21.166 134.057 21.166C134.531 21.166 134.95 21.1227 135.314 21.0361C135.679 20.9495 136.057 20.8219 136.449 20.6533V21.6514C136.071 21.82 135.695 21.943 135.321 22.0205C134.952 22.098 134.515 22.1367 134.009 22.1367C133.289 22.1367 132.66 21.9909 132.122 21.6992C131.589 21.403 131.174 20.9701 130.878 20.4004C130.582 19.8307 130.434 19.1335 130.434 18.3086C130.434 17.502 130.568 16.8047 130.837 16.2168C131.11 15.6243 131.493 15.1686 131.985 14.8496C132.482 14.5306 133.065 14.3711 133.735 14.3711ZM133.722 15.3008C133.115 15.3008 132.632 15.499 132.272 15.8955C131.912 16.292 131.698 16.8457 131.63 17.5566H135.595C135.59 17.11 135.519 16.7181 135.383 16.3809C135.251 16.0391 135.048 15.7747 134.774 15.5879C134.501 15.3965 134.15 15.3008 133.722 15.3008ZM142.232 14.3711C143.12 14.3711 143.793 14.5898 144.248 15.0273C144.704 15.4603 144.932 16.1576 144.932 17.1191V22H143.811V17.1943C143.811 16.57 143.667 16.1029 143.38 15.793C143.098 15.4831 142.662 15.3281 142.074 15.3281C141.245 15.3281 140.662 15.5628 140.324 16.0322C139.987 16.5016 139.819 17.1829 139.819 18.0762V22H138.684V14.5078H139.6L139.771 15.5879H139.832C139.992 15.3236 140.195 15.1025 140.441 14.9248C140.687 14.7425 140.962 14.6058 141.268 14.5146C141.573 14.4189 141.894 14.3711 142.232 14.3711ZM149.662 21.207C149.849 21.207 150.04 21.1911 150.236 21.1592C150.432 21.1273 150.591 21.0885 150.714 21.043V21.9248C150.582 21.984 150.398 22.0342 150.161 22.0752C149.928 22.1162 149.7 22.1367 149.477 22.1367C149.081 22.1367 148.721 22.0684 148.397 21.9316C148.073 21.7904 147.814 21.5534 147.618 21.2207C147.426 20.888 147.331 20.4277 147.331 19.8398V15.3965H146.264V14.8428L147.337 14.3984L147.789 12.7715H148.472V14.5078H150.667V15.3965H148.472V19.8057C148.472 20.2751 148.579 20.626 148.794 20.8584C149.012 21.0908 149.302 21.207 149.662 21.207ZM153.339 14.5078V22H152.204V14.5078H153.339ZM152.785 11.7051C152.972 11.7051 153.131 11.7666 153.264 11.8896C153.4 12.0081 153.469 12.195 153.469 12.4502C153.469 12.7008 153.4 12.8877 153.264 13.0107C153.131 13.1338 152.972 13.1953 152.785 13.1953C152.589 13.1953 152.425 13.1338 152.293 13.0107C152.165 12.8877 152.101 12.7008 152.101 12.4502C152.101 12.195 152.165 12.0081 152.293 11.8896C152.425 11.7666 152.589 11.7051 152.785 11.7051ZM162.177 18.2402C162.177 18.8555 162.097 19.4046 161.938 19.8877C161.778 20.3708 161.548 20.7786 161.247 21.1113C160.947 21.444 160.582 21.6992 160.154 21.877C159.73 22.0501 159.249 22.1367 158.711 22.1367C158.21 22.1367 157.75 22.0501 157.33 21.877C156.916 21.6992 156.556 21.444 156.25 21.1113C155.949 20.7786 155.715 20.3708 155.546 19.8877C155.382 19.4046 155.3 18.8555 155.3 18.2402C155.3 17.4199 155.439 16.7227 155.717 16.1484C155.995 15.5697 156.391 15.1299 156.906 14.8291C157.426 14.5238 158.044 14.3711 158.759 14.3711C159.443 14.3711 160.04 14.5238 160.55 14.8291C161.065 15.1344 161.464 15.5765 161.746 16.1553C162.033 16.7295 162.177 17.4245 162.177 18.2402ZM156.476 18.2402C156.476 18.8418 156.556 19.3636 156.715 19.8057C156.875 20.2477 157.121 20.5895 157.453 20.8311C157.786 21.0726 158.214 21.1934 158.738 21.1934C159.258 21.1934 159.684 21.0726 160.017 20.8311C160.354 20.5895 160.602 20.2477 160.762 19.8057C160.921 19.3636 161.001 18.8418 161.001 18.2402C161.001 17.6432 160.921 17.1283 160.762 16.6953C160.602 16.2578 160.356 15.9206 160.024 15.6836C159.691 15.4466 159.26 15.3281 158.732 15.3281C157.952 15.3281 157.38 15.5856 157.016 16.1006C156.656 16.6156 156.476 17.3288 156.476 18.2402ZM167.659 14.3711C168.547 14.3711 169.22 14.5898 169.675 15.0273C170.131 15.4603 170.359 16.1576 170.359 17.1191V22H169.238V17.1943C169.238 16.57 169.094 16.1029 168.807 15.793C168.525 15.4831 168.089 15.3281 167.502 15.3281C166.672 15.3281 166.089 15.5628 165.752 16.0322C165.414 16.5016 165.246 17.1829 165.246 18.0762V22H164.111V14.5078H165.027L165.198 15.5879H165.259C165.419 15.3236 165.622 15.1025 165.868 14.9248C166.114 14.7425 166.39 14.6058 166.695 14.5146C167 14.4189 167.321 14.3711 167.659 14.3711ZM179.08 14.3848C179.974 14.3848 180.637 14.5853 181.07 14.9863C181.502 15.3874 181.719 16.0277 181.719 16.9072V22H180.892L180.673 20.8926H180.618C180.409 21.166 180.19 21.3962 179.962 21.583C179.734 21.7653 179.47 21.9043 179.169 22C178.873 22.0911 178.508 22.1367 178.075 22.1367C177.62 22.1367 177.214 22.057 176.859 21.8975C176.508 21.738 176.23 21.4964 176.025 21.1729C175.824 20.8493 175.724 20.4391 175.724 19.9424C175.724 19.195 176.02 18.6208 176.613 18.2197C177.205 17.8187 178.107 17.5999 179.32 17.5635L180.612 17.5088V17.0508C180.612 16.4036 180.473 15.9502 180.195 15.6904C179.917 15.4307 179.525 15.3008 179.019 15.3008C178.627 15.3008 178.253 15.3577 177.898 15.4717C177.542 15.5856 177.205 15.7201 176.886 15.875L176.537 15.0137C176.875 14.8405 177.262 14.6924 177.699 14.5693C178.137 14.4463 178.597 14.3848 179.08 14.3848ZM180.598 18.3086L179.456 18.3564C178.522 18.3929 177.863 18.5456 177.481 18.8145C177.098 19.0833 176.906 19.4639 176.906 19.9561C176.906 20.3844 177.036 20.7012 177.296 20.9062C177.556 21.1113 177.9 21.2139 178.328 21.2139C178.994 21.2139 179.538 21.0293 179.962 20.6602C180.386 20.291 180.598 19.7373 180.598 18.999V18.3086ZM15.3828 32.5078V40H14.4531L14.2891 38.9473H14.2275C14.0726 39.207 13.8721 39.4258 13.626 39.6035C13.3799 39.7812 13.1019 39.9134 12.792 40C12.4867 40.0911 12.1608 40.1367 11.8145 40.1367C11.222 40.1367 10.7253 40.041 10.3242 39.8496C9.92318 39.6582 9.62012 39.362 9.41504 38.9609C9.21452 38.5599 9.11426 38.0449 9.11426 37.416V32.5078H10.2627V37.334C10.2627 37.9583 10.404 38.4255 10.6865 38.7354C10.9691 39.0407 11.3997 39.1934 11.9785 39.1934C12.5345 39.1934 12.9766 39.0885 13.3047 38.8789C13.6374 38.6693 13.8766 38.3617 14.0225 37.9561C14.1683 37.5459 14.2412 37.0446 14.2412 36.4521V32.5078H15.3828ZM22.6009 37.9492C22.6009 38.4277 22.4801 38.8311 22.2386 39.1592C22.0016 39.4827 21.6598 39.7266 21.2132 39.8906C20.7712 40.0547 20.2425 40.1367 19.6273 40.1367C19.1032 40.1367 18.6497 40.0957 18.2669 40.0137C17.8841 39.9316 17.5491 39.8154 17.262 39.665V38.6191C17.5674 38.7695 17.932 38.9062 18.3558 39.0293C18.7796 39.1523 19.2126 39.2139 19.6546 39.2139C20.3018 39.2139 20.7712 39.109 21.0628 38.8994C21.3545 38.6898 21.5003 38.4049 21.5003 38.0449C21.5003 37.8398 21.4411 37.6598 21.3226 37.5049C21.2087 37.3454 21.015 37.1927 20.7415 37.0469C20.4681 36.8965 20.0898 36.7324 19.6068 36.5547C19.1283 36.3724 18.7135 36.1924 18.3626 36.0146C18.0163 35.8324 17.7474 35.6113 17.556 35.3516C17.3691 35.0918 17.2757 34.7546 17.2757 34.3398C17.2757 33.7064 17.5309 33.221 18.0413 32.8838C18.5563 32.542 19.2308 32.3711 20.0648 32.3711C20.5159 32.3711 20.9375 32.4167 21.3294 32.5078C21.7259 32.5944 22.095 32.7129 22.4368 32.8633L22.054 33.7725C21.7441 33.6403 21.4137 33.5286 21.0628 33.4375C20.7119 33.3464 20.3542 33.3008 19.9896 33.3008C19.4655 33.3008 19.0622 33.3874 18.7796 33.5605C18.5016 33.7337 18.3626 33.9707 18.3626 34.2715C18.3626 34.5039 18.4264 34.6953 18.554 34.8457C18.6862 34.9961 18.8958 35.1374 19.1829 35.2695C19.47 35.4017 19.8483 35.5566 20.3177 35.7344C20.7871 35.9076 21.1927 36.0876 21.5345 36.2744C21.8763 36.4567 22.1383 36.68 22.3206 36.9443C22.5075 37.2041 22.6009 37.5391 22.6009 37.9492ZM27.2829 32.3711C27.9209 32.3711 28.4678 32.5124 28.9235 32.7949C29.3792 33.0775 29.7279 33.474 29.9694 33.9844C30.2109 34.4902 30.3317 35.0827 30.3317 35.7617V36.4658H25.1569C25.1706 37.3454 25.3893 38.0153 25.8131 38.4756C26.237 38.9359 26.834 39.166 27.6042 39.166C28.0781 39.166 28.4974 39.1227 28.862 39.0361C29.2266 38.9495 29.6048 38.8219 29.9967 38.6533V39.6514C29.6185 39.82 29.2425 39.943 28.8688 40.0205C28.4997 40.098 28.0622 40.1367 27.5563 40.1367C26.8363 40.1367 26.2073 39.9909 25.6696 39.6992C25.1364 39.403 24.7217 38.9701 24.4254 38.4004C24.1292 37.8307 23.9811 37.1335 23.9811 36.3086C23.9811 35.502 24.1155 34.8047 24.3844 34.2168C24.6579 33.6243 25.0407 33.1686 25.5329 32.8496C26.0296 32.5306 26.6129 32.3711 27.2829 32.3711ZM27.2692 33.3008C26.6631 33.3008 26.18 33.499 25.82 33.8955C25.46 34.292 25.2458 34.8457 25.1774 35.5566H29.1422C29.1377 35.11 29.067 34.7181 28.9303 34.3809C28.7982 34.0391 28.5954 33.7747 28.3219 33.5879C28.0485 33.3965 27.6976 33.3008 27.2692 33.3008ZM35.6357 32.3711C35.7861 32.3711 35.9433 32.3802 36.1074 32.3984C36.2715 32.4121 36.4173 32.4326 36.5449 32.46L36.4014 33.5127C36.2783 33.4808 36.1416 33.4557 35.9912 33.4375C35.8408 33.4193 35.6995 33.4102 35.5674 33.4102C35.2666 33.4102 34.9818 33.4717 34.7129 33.5947C34.4486 33.7132 34.2161 33.8864 34.0156 34.1143C33.8151 34.3376 33.6579 34.6087 33.5439 34.9277C33.43 35.2422 33.373 35.5931 33.373 35.9805V40H32.2314V32.5078H33.1748L33.2978 33.8887H33.3457C33.5006 33.6107 33.6875 33.3577 33.9062 33.1299C34.125 32.8975 34.3779 32.7129 34.665 32.5762C34.9567 32.4395 35.2803 32.3711 35.6357 32.3711ZM47.6383 39.9863L46.3053 35.625C46.2461 35.4382 46.1891 35.2559 46.1344 35.0781C46.0843 34.8958 46.0364 34.7227 45.9909 34.5586C45.9498 34.39 45.9111 34.235 45.8746 34.0938C45.8427 33.9479 45.8154 33.8226 45.7926 33.7178H45.7448C45.7265 33.8226 45.7015 33.9479 45.6696 34.0938C45.6377 34.235 45.5989 34.39 45.5534 34.5586C45.5123 34.7272 45.4668 34.9049 45.4166 35.0918C45.3665 35.2741 45.3095 35.4587 45.2457 35.6455L43.8512 39.9863H42.5729L40.5084 32.4941H41.6842L42.7643 36.6299C42.8372 36.9033 42.9056 37.1745 42.9694 37.4434C43.0377 37.7077 43.0947 37.9583 43.1403 38.1953C43.1904 38.4277 43.2269 38.6305 43.2496 38.8037H43.3043C43.3317 38.6898 43.3613 38.5531 43.3932 38.3936C43.4297 38.234 43.4684 38.0654 43.5094 37.8877C43.555 37.7054 43.6028 37.5254 43.653 37.3477C43.7031 37.1654 43.7532 36.9945 43.8034 36.835L45.1842 32.4941H46.4079L47.7409 36.8281C47.8092 37.0469 47.8753 37.2747 47.9391 37.5117C48.0075 37.7487 48.069 37.9788 48.1237 38.2021C48.1784 38.4209 48.2171 38.6169 48.2399 38.79H48.2946C48.3128 38.6351 48.347 38.4437 48.3971 38.2158C48.4472 37.988 48.5042 37.7373 48.568 37.4639C48.6364 37.1904 48.707 36.9124 48.7799 36.6299L49.8737 32.4941H51.0289L48.9577 39.9863H47.6383ZM53.5029 32.5078V40H52.3681V32.5078H53.5029ZM52.9492 29.7051C53.136 29.7051 53.2955 29.7666 53.4277 29.8896C53.5644 30.0081 53.6328 30.195 53.6328 30.4502C53.6328 30.7008 53.5644 30.8877 53.4277 31.0107C53.2955 31.1338 53.136 31.1953 52.9492 31.1953C52.7532 31.1953 52.5892 31.1338 52.457 31.0107C52.3294 30.8877 52.2656 30.7008 52.2656 30.4502C52.2656 30.195 52.3294 30.0081 52.457 29.8896C52.5892 29.7666 52.7532 29.7051 52.9492 29.7051ZM58.3011 39.207C58.4879 39.207 58.6793 39.1911 58.8753 39.1592C59.0713 39.1273 59.2308 39.0885 59.3538 39.043V39.9248C59.2216 39.984 59.0371 40.0342 58.8001 40.0752C58.5677 40.1162 58.3398 40.1367 58.1165 40.1367C57.72 40.1367 57.36 40.0684 57.0364 39.9316C56.7129 39.7904 56.4531 39.5534 56.2571 39.2207C56.0657 38.888 55.97 38.4277 55.97 37.8398V33.3965H54.9036V32.8428L55.9769 32.3984L56.428 30.7715H57.1116V32.5078H59.306V33.3965H57.1116V37.8057C57.1116 38.2751 57.2187 38.626 57.4329 38.8584C57.6517 39.0908 57.941 39.207 58.3011 39.207ZM61.9781 29.3633V32.542C61.9781 32.7243 61.9736 32.9089 61.9645 33.0957C61.9554 33.278 61.9394 33.4466 61.9166 33.6016H61.9918C62.1468 33.3372 62.3427 33.1162 62.5797 32.9385C62.8212 32.7562 63.0947 32.6195 63.4 32.5283C63.7054 32.4326 64.0289 32.3848 64.3707 32.3848C64.9723 32.3848 65.4736 32.4805 65.8746 32.6719C66.2802 32.8633 66.5833 33.1595 66.7838 33.5605C66.9889 33.9616 67.0914 34.4811 67.0914 35.1191V40H65.9703V35.1943C65.9703 34.57 65.8268 34.1029 65.5397 33.793C65.2571 33.4831 64.8219 33.3281 64.234 33.3281C63.678 33.3281 63.2337 33.4352 62.901 33.6494C62.5729 33.859 62.3359 34.1689 62.1901 34.5791C62.0488 34.9893 61.9781 35.4906 61.9781 36.083V40H60.8434V29.3633H61.9781ZM83.5647 35.0098C83.5647 35.4427 83.5146 35.8665 83.4143 36.2812C83.3186 36.6914 83.1705 37.0628 82.97 37.3955C82.7695 37.7236 82.5188 37.9857 82.218 38.1816C81.9218 38.3776 81.5709 38.4756 81.1653 38.4756C80.7415 38.4756 80.4042 38.3525 80.1536 38.1064C79.9029 37.8604 79.7526 37.5687 79.7024 37.2314H79.6409C79.4677 37.5915 79.2125 37.89 78.8753 38.127C78.5426 38.3594 78.1324 38.4756 77.6448 38.4756C76.9339 38.4756 76.3847 38.2409 75.9973 37.7715C75.6145 37.2975 75.4231 36.6686 75.4231 35.8848C75.4231 35.2741 75.5439 34.734 75.7854 34.2646C76.0315 33.7907 76.3756 33.4193 76.8177 33.1504C77.2643 32.877 77.7906 32.7402 78.3968 32.7402C78.8024 32.7402 79.1966 32.7744 79.5794 32.8428C79.9622 32.9111 80.2675 32.9863 80.4954 33.0684L80.3587 35.8232C80.3541 35.9919 80.3496 36.1217 80.345 36.2129C80.3404 36.2995 80.3382 36.3678 80.3382 36.418C80.3382 36.9102 80.4248 37.2428 80.5979 37.416C80.7757 37.5846 80.9899 37.6689 81.2405 37.6689C81.5458 37.6689 81.8011 37.5505 82.0061 37.3135C82.2158 37.0719 82.3753 36.7507 82.4846 36.3496C82.594 35.944 82.6487 35.4951 82.6487 35.0029C82.6487 34.1325 82.4733 33.3896 82.1223 32.7744C81.7714 32.1592 81.2861 31.6898 80.6663 31.3662C80.0511 31.0426 79.3424 30.8809 78.5403 30.8809C77.7428 30.8809 77.0341 31.0062 76.4143 31.2568C75.7991 31.5075 75.2773 31.863 74.8489 32.3232C74.4251 32.779 74.1038 33.3213 73.885 33.9502C73.6663 34.5791 73.5569 35.2741 73.5569 36.0352C73.5569 36.9648 73.721 37.7555 74.0491 38.4072C74.3818 39.0589 74.8671 39.5557 75.5052 39.8975C76.1477 40.2347 76.9293 40.4033 77.8499 40.4033C78.4059 40.4033 78.9414 40.3418 79.4563 40.2188C79.9713 40.0957 80.4316 39.9567 80.8372 39.8018V40.6904C80.4361 40.859 79.9873 40.9958 79.4905 41.1006C78.9938 41.21 78.4469 41.2646 77.8499 41.2646C76.7516 41.2646 75.8128 41.0573 75.0335 40.6426C74.2542 40.2324 73.6572 39.64 73.2425 38.8652C72.8277 38.0905 72.6204 37.1608 72.6204 36.0762C72.6204 35.1966 72.7548 34.3877 73.0237 33.6494C73.2971 32.9111 73.6891 32.2708 74.1995 31.7285C74.7145 31.1862 75.3365 30.7669 76.0657 30.4707C76.7994 30.1699 77.6243 30.0195 78.5403 30.0195C79.5201 30.0195 80.386 30.2223 81.138 30.6279C81.8945 31.029 82.4869 31.6032 82.9153 32.3506C83.3483 33.0934 83.5647 33.9798 83.5647 35.0098ZM76.4417 35.9121C76.4417 36.5182 76.5624 36.9626 76.804 37.2451C77.0455 37.5277 77.3805 37.6689 77.8089 37.6689C78.3375 37.6689 78.7249 37.4707 78.971 37.0742C79.2216 36.6777 79.3652 36.1536 79.4016 35.502L79.4837 33.7178C79.3515 33.6768 79.1897 33.6426 78.9983 33.6152C78.8115 33.5833 78.6155 33.5674 78.4104 33.5674C77.941 33.5674 77.5605 33.679 77.2688 33.9023C76.9817 34.1257 76.7721 34.415 76.6399 34.7705C76.5078 35.126 76.4417 35.5065 76.4417 35.9121Z" fill="#718096"/>
<path d="M20 146C24.9706 146 29 141.971 29 137C29 132.029 24.9706 128 20 128C15.0294 128 11 132.029 11 137C11 141.971 15.0294 146 20 146Z" stroke="#718096" stroke-width="1.5" stroke-linecap="round" stroke-linejoin="round"/>
<path d="M25 139C24.5384 139.901 23.8257 140.659 22.9422 141.189C22.0588 141.719 21.0397 142 20 142C18.9603 142 17.9412 141.719 17.0578 141.189C16.1743 140.659 15.4616 139.901 15 139" stroke="#718096" stroke-width="1.5" stroke-linecap="round" stroke-linejoin="round"/>
<path d="M23 133C23.1978 133 23.3911 133.059 23.5556 133.169C23.72 133.278 23.8482 133.435 23.9239 133.617C23.9996 133.8 24.0194 134.001 23.9808 134.195C23.9422 134.389 23.847 134.567 23.7071 134.707C23.5673 134.847 23.3891 134.942 23.1951 134.981C23.0011 135.019 22.8 135 22.6173 134.924C22.4346 134.848 22.2784 134.72 22.1685 134.556C22.0586 134.391 22 134.198 22 134C22 133.735 22.1054 133.48 22.2929 133.293C22.4804 133.105 22.7348 133 23 133Z" fill="#718096"/>
<path d="M17 133C17.1978 133 17.3911 133.059 17.5556 133.169C17.72 133.278 17.8482 133.435 17.9239 133.617C17.9996 133.8 18.0194 134.001 17.9808 134.195C17.9422 134.389 17.847 134.567 17.7071 134.707C17.5673 134.847 17.3891 134.942 17.1951 134.981C17.0011 135.019 16.8 135 16.6173 134.924C16.4346 134.848 16.2784 134.72 16.1685 134.556C16.0586 134.391 16 134.198 16 134C16 133.735 16.1054 133.48 16.2929 133.293C16.4804 133.105 16.7348 133 17 133Z" fill="#718096"/>
<path d="M51.9167 141.083C53.6656 141.083 55.0833 139.666 55.0833 137.917C55.0833 136.168 53.6656 134.75 51.9167 134.75C50.1678 134.75 48.75 136.168 48.75 137.917C48.75 139.666 50.1678 141.083 51.9167 141.083Z" stroke="#718096" stroke-width="1.5"/>
<path d="M59.8333 137.917C59.8333 133.544 56.289 130 51.9167 130C47.5443 130 44 133.544 44 137.917C44 142.289 47.5443 145.833 51.9167 145.833C53.6995 145.833 55.3446 145.244 56.6675 144.25" stroke="#718096" stroke-width="1.5" stroke-linecap="round" stroke-linejoin="round"/>
<path d="M55.084 134.75V137.917C55.084 138.708 55.559 140.292 57.459 140.292C59.359 140.292 59.834 138.708 59.834 137.917" stroke="#718096" stroke-width="1.5" stroke-linecap="round"/>
<rect x="72" y="125" width="24" height="24" rx="4" fill="#E2E8F0"/>
<path d="M93 135.165L84.2184 143.948C83.2057 144.961 81.8322 145.529 80.4 145.529C78.9678 145.529 77.5943 144.961 76.5816 143.948C75.5689 142.935 75 141.562 75 140.129C75 138.697 75.5689 137.324 76.5816 136.311L83.7944 129.099C84.1265 128.755 84.5237 128.481 84.963 128.292C85.4022 128.104 85.8746 128.004 86.3526 128C86.8306 127.996 87.3046 128.087 87.747 128.268C88.1895 128.449 88.5914 128.716 88.9294 129.054C89.2674 129.392 89.5348 129.794 89.7158 130.237C89.8968 130.679 89.9879 131.153 89.9837 131.631C89.9796 132.109 89.8802 132.582 89.6916 133.021C89.5029 133.46 89.2286 133.857 88.8848 134.189L81.6728 141.405C81.3334 141.733 80.8787 141.915 80.4068 141.911C79.9348 141.907 79.4833 141.718 79.1495 141.384C78.8158 141.05 78.6264 140.599 78.6222 140.127C78.618 139.655 78.7994 139.2 79.1272 138.861L86.34 131.645" stroke="#718096" stroke-width="1.5" stroke-linecap="round" stroke-linejoin="round"/>
<path d="M107.562 146C107.497 146 107.431 145.988 107.368 145.965C107.361 145.963 107.356 145.961 107.351 145.959C107.21 145.901 107.099 145.789 107.042 145.651C107.04 145.646 107.037 145.64 107.035 145.634C107.013 145.573 107 145.506 107 145.438V140.375C107 140.065 107.252 139.813 107.562 139.813C107.873 139.813 108.125 140.065 108.125 140.375V144.079L113.915 138.289C114.022 138.183 114.162 138.124 114.312 138.124C114.463 138.124 114.604 138.183 114.71 138.289C114.816 138.396 114.875 138.537 114.875 138.687C114.875 138.837 114.816 138.979 114.71 139.084L108.92 144.874H112.625C112.936 144.874 113.188 145.126 113.188 145.437C113.188 145.747 112.936 145.999 112.625 145.999H107.562V146Z" fill="#718096"/>
<path d="M117.688 135.875C117.537 135.875 117.396 135.816 117.29 135.71C117.184 135.604 117.125 135.463 117.125 135.312C117.125 135.162 117.184 135.021 117.29 134.915L123.08 129.125H119.375C119.064 129.125 118.812 128.873 118.812 128.562C118.812 128.252 119.064 128 119.375 128H124.438C124.504 128 124.569 128.012 124.633 128.036C124.641 128.039 124.65 128.042 124.657 128.045C124.789 128.099 124.9 128.211 124.957 128.348C124.96 128.354 124.962 128.361 124.965 128.368C124.988 128.429 125 128.496 125 128.562V133.625C125 133.936 124.748 134.188 124.438 134.188C124.127 134.188 123.875 133.936 123.875 133.625V129.921L118.085 135.711C117.979 135.817 117.837 135.875 117.688 135.875Z" fill="#718096"/>
<line y1="120.5" x2="198" y2="120.5" stroke="#E2E8F0"/>
<path d="M168.75 129.053L184.71 136.917C184.797 136.96 184.87 137.027 184.922 137.109C184.973 137.191 185 137.287 185 137.384C185 137.481 184.973 137.576 184.922 137.658C184.87 137.74 184.797 137.807 184.71 137.85L168.749 145.714C168.66 145.758 168.56 145.775 168.461 145.764C168.362 145.752 168.268 145.713 168.191 145.65C168.114 145.586 168.056 145.503 168.026 145.408C167.995 145.313 167.992 145.211 168.017 145.115L169.598 139.144C169.624 139.047 169.677 138.96 169.751 138.893C169.825 138.825 169.917 138.781 170.015 138.764L177.167 137.572C177.21 137.565 177.25 137.548 177.284 137.521C177.318 137.495 177.345 137.46 177.363 137.42L177.381 137.358C177.391 137.3 177.381 137.241 177.353 137.19C177.324 137.138 177.279 137.098 177.225 137.075L177.167 137.059L169.976 135.86C169.877 135.844 169.786 135.799 169.712 135.732C169.638 135.665 169.585 135.577 169.56 135.481L168.017 129.653C167.992 129.557 167.994 129.455 168.025 129.36C168.056 129.265 168.113 129.181 168.19 129.118C168.267 129.055 168.361 129.015 168.46 129.003C168.559 128.992 168.66 129.009 168.749 129.053H168.75Z" fill="#A0AEC0"/>
<g filter="url(#filter0_dd_8158_51317)">
<rect x="44" y="80" width="82" height="32" rx="8" fill="white"/>
<path d="M58.7031 101L57.6484 98.2812H54.2148L53.166 101H52.1582L55.5098 92.3984H56.4062L59.7344 101H58.7031ZM57.3496 97.3965L56.3477 94.6953C56.3242 94.625 56.2852 94.5098 56.2305 94.3496C56.1797 94.1895 56.127 94.0234 56.0723 93.8516C56.0176 93.6797 55.9727 93.541 55.9375 93.4355C55.8984 93.5957 55.8555 93.7559 55.8086 93.916C55.7656 94.0723 55.7227 94.2188 55.6797 94.3555C55.6367 94.4883 55.5996 94.6016 55.5684 94.6953L54.5488 97.3965H57.3496ZM62.8516 100.32C63.0117 100.32 63.1758 100.307 63.3438 100.279C63.5117 100.252 63.6484 100.219 63.7539 100.18V100.936C63.6406 100.986 63.4824 101.029 63.2793 101.064C63.0801 101.1 62.8848 101.117 62.6934 101.117C62.3535 101.117 62.0449 101.059 61.7676 100.941C61.4902 100.82 61.2676 100.617 61.0996 100.332C60.9355 100.047 60.8535 99.6523 60.8535 99.1484V95.3398H59.9395V94.8652L60.8594 94.4844L61.2461 93.0898H61.832V94.5781H63.7129V95.3398H61.832V99.1191C61.832 99.5215 61.9238 99.8223 62.1074 100.021C62.2949 100.221 62.543 100.32 62.8516 100.32ZM67.1289 100.32C67.2891 100.32 67.4531 100.307 67.6211 100.279C67.7891 100.252 67.9258 100.219 68.0312 100.18V100.936C67.918 100.986 67.7598 101.029 67.5566 101.064C67.3574 101.1 67.1621 101.117 66.9707 101.117C66.6309 101.117 66.3223 101.059 66.0449 100.941C65.7676 100.82 65.5449 100.617 65.377 100.332C65.2129 100.047 65.1309 99.6523 65.1309 99.1484V95.3398H64.2168V94.8652L65.1367 94.4844L65.5234 93.0898H66.1094V94.5781H67.9902V95.3398H66.1094V99.1191C66.1094 99.5215 66.2012 99.8223 66.3848 100.021C66.5723 100.221 66.8203 100.32 67.1289 100.32ZM71.7344 94.4727C72.5 94.4727 73.0684 94.6445 73.4395 94.9883C73.8105 95.332 73.9961 95.8809 73.9961 96.6348V101H73.2871L73.0996 100.051H73.0527C72.873 100.285 72.6855 100.482 72.4902 100.643C72.2949 100.799 72.0684 100.918 71.8105 101C71.5566 101.078 71.2441 101.117 70.873 101.117C70.4824 101.117 70.1348 101.049 69.8301 100.912C69.5293 100.775 69.291 100.568 69.1152 100.291C68.9434 100.014 68.8574 99.6621 68.8574 99.2363C68.8574 98.5957 69.1113 98.1035 69.6191 97.7598C70.127 97.416 70.9004 97.2285 71.9395 97.1973L73.0469 97.1504V96.7578C73.0469 96.2031 72.9277 95.8145 72.6895 95.5918C72.4512 95.3691 72.1152 95.2578 71.6816 95.2578C71.3457 95.2578 71.0254 95.3066 70.7207 95.4043C70.416 95.502 70.127 95.6172 69.8535 95.75L69.5547 95.0117C69.8438 94.8633 70.1758 94.7363 70.5508 94.6309C70.9258 94.5254 71.3203 94.4727 71.7344 94.4727ZM73.0352 97.8359L72.0566 97.877C71.2559 97.9082 70.6914 98.0391 70.3633 98.2695C70.0352 98.5 69.8711 98.8262 69.8711 99.248C69.8711 99.6152 69.9824 99.8867 70.2051 100.062C70.4277 100.238 70.7227 100.326 71.0898 100.326C71.6602 100.326 72.127 100.168 72.4902 99.8516C72.8535 99.5352 73.0352 99.0605 73.0352 98.4277V97.8359ZM78.5723 101.117C77.9941 101.117 77.4844 100.998 77.043 100.76C76.6016 100.521 76.2578 100.158 76.0117 99.6699C75.7656 99.1816 75.6426 98.5664 75.6426 97.8242C75.6426 97.0469 75.7715 96.4121 76.0293 95.9199C76.291 95.4238 76.6504 95.0566 77.1074 94.8184C77.5645 94.5801 78.084 94.4609 78.666 94.4609C78.9863 94.4609 79.2949 94.4941 79.5918 94.5605C79.8926 94.623 80.1387 94.7031 80.3301 94.8008L80.0371 95.6152C79.8418 95.5371 79.6152 95.4668 79.3574 95.4043C79.1035 95.3418 78.8652 95.3105 78.6426 95.3105C78.1973 95.3105 77.8262 95.4062 77.5293 95.5977C77.2363 95.7891 77.0156 96.0703 76.8672 96.4414C76.7227 96.8125 76.6504 97.2695 76.6504 97.8125C76.6504 98.332 76.7207 98.7754 76.8613 99.1426C77.0059 99.5098 77.2188 99.791 77.5 99.9863C77.7852 100.178 78.1406 100.273 78.5664 100.273C78.9062 100.273 79.2129 100.238 79.4863 100.168C79.7598 100.094 80.0078 100.008 80.2305 99.9102V100.777C80.0156 100.887 79.7754 100.971 79.5098 101.029C79.248 101.088 78.9355 101.117 78.5723 101.117ZM82.7266 91.8828V94.6074C82.7266 94.7637 82.7227 94.9219 82.7148 95.082C82.707 95.2383 82.6934 95.3828 82.6738 95.5156H82.7383C82.8711 95.2891 83.0391 95.0996 83.2422 94.9473C83.4492 94.791 83.6836 94.6738 83.9453 94.5957C84.207 94.5137 84.4844 94.4727 84.7773 94.4727C85.293 94.4727 85.7227 94.5547 86.0664 94.7188C86.4141 94.8828 86.6738 95.1367 86.8457 95.4805C87.0215 95.8242 87.1094 96.2695 87.1094 96.8164V101H86.1484V96.8809C86.1484 96.3457 86.0254 95.9453 85.7793 95.6797C85.5371 95.4141 85.1641 95.2812 84.6602 95.2812C84.1836 95.2812 83.8027 95.373 83.5176 95.5566C83.2363 95.7363 83.0332 96.002 82.9082 96.3535C82.7871 96.7051 82.7266 97.1348 82.7266 97.6426V101H81.7539V91.8828H82.7266ZM94.6328 94.4727C95.3984 94.4727 95.9668 94.6445 96.3379 94.9883C96.709 95.332 96.8945 95.8809 96.8945 96.6348V101H96.1855L95.998 100.051H95.9512C95.7715 100.285 95.584 100.482 95.3887 100.643C95.1934 100.799 94.9668 100.918 94.709 101C94.4551 101.078 94.1426 101.117 93.7715 101.117C93.3809 101.117 93.0332 101.049 92.7285 100.912C92.4277 100.775 92.1895 100.568 92.0137 100.291C91.8418 100.014 91.7559 99.6621 91.7559 99.2363C91.7559 98.5957 92.0098 98.1035 92.5176 97.7598C93.0254 97.416 93.7988 97.2285 94.8379 97.1973L95.9453 97.1504V96.7578C95.9453 96.2031 95.8262 95.8145 95.5879 95.5918C95.3496 95.3691 95.0137 95.2578 94.5801 95.2578C94.2441 95.2578 93.9238 95.3066 93.6191 95.4043C93.3145 95.502 93.0254 95.6172 92.752 95.75L92.4531 95.0117C92.7422 94.8633 93.0742 94.7363 93.4492 94.6309C93.8242 94.5254 94.2188 94.4727 94.6328 94.4727ZM95.9336 97.8359L94.9551 97.877C94.1543 97.9082 93.5898 98.0391 93.2617 98.2695C92.9336 98.5 92.7695 98.8262 92.7695 99.248C92.7695 99.6152 92.8809 99.8867 93.1035 100.062C93.3262 100.238 93.6211 100.326 93.9883 100.326C94.5586 100.326 95.0254 100.168 95.3887 99.8516C95.752 99.5352 95.9336 99.0605 95.9336 98.4277V97.8359ZM104.875 95.3398H103.275V101H102.303V95.3398H101.166V94.8711L102.303 94.5488V94.1211C102.303 93.582 102.383 93.1445 102.543 92.8086C102.703 92.4688 102.936 92.2188 103.24 92.0586C103.545 91.8984 103.916 91.8184 104.354 91.8184C104.6 91.8184 104.824 91.8398 105.027 91.8828C105.234 91.9258 105.416 91.9746 105.572 92.0293L105.32 92.7969C105.188 92.7539 105.037 92.7148 104.869 92.6797C104.705 92.6406 104.537 92.6211 104.365 92.6211C103.994 92.6211 103.719 92.7422 103.539 92.9844C103.363 93.2227 103.275 93.5977 103.275 94.1094V94.5781H104.875V95.3398ZM107.031 94.5781V101H106.059V94.5781H107.031ZM106.557 92.1758C106.717 92.1758 106.854 92.2285 106.967 92.334C107.084 92.4355 107.143 92.5957 107.143 92.8145C107.143 93.0293 107.084 93.1895 106.967 93.2949C106.854 93.4004 106.717 93.4531 106.557 93.4531C106.389 93.4531 106.248 93.4004 106.135 93.2949C106.025 93.1895 105.971 93.0293 105.971 92.8145C105.971 92.5957 106.025 92.4355 106.135 92.334C106.248 92.2285 106.389 92.1758 106.557 92.1758ZM110.072 101H109.094V91.8828H110.072V101ZM114.602 94.4609C115.148 94.4609 115.617 94.582 116.008 94.8242C116.398 95.0664 116.697 95.4062 116.904 95.8438C117.111 96.2773 117.215 96.7852 117.215 97.3672V97.9707H112.779C112.791 98.7246 112.979 99.2988 113.342 99.6934C113.705 100.088 114.217 100.285 114.877 100.285C115.283 100.285 115.643 100.248 115.955 100.174C116.268 100.1 116.592 99.9902 116.928 99.8457V100.701C116.604 100.846 116.281 100.951 115.961 101.018C115.645 101.084 115.27 101.117 114.836 101.117C114.219 101.117 113.68 100.992 113.219 100.742C112.762 100.488 112.406 100.117 112.152 99.6289C111.898 99.1406 111.771 98.543 111.771 97.8359C111.771 97.1445 111.887 96.5469 112.117 96.043C112.352 95.5352 112.68 95.1445 113.102 94.8711C113.527 94.5977 114.027 94.4609 114.602 94.4609ZM114.59 95.2578C114.07 95.2578 113.656 95.4277 113.348 95.7676C113.039 96.1074 112.855 96.582 112.797 97.1914H116.195C116.191 96.8086 116.131 96.4727 116.014 96.1836C115.9 95.8906 115.727 95.6641 115.492 95.5039C115.258 95.3398 114.957 95.2578 114.59 95.2578Z" fill="#1A202C"/>
<rect x="43.5" y="79.5" width="83" height="33" rx="8.5" stroke="url(#paint0_linear_8158_51317)"/>
</g>
<g filter="url(#filter1_dd_8158_51317)">
<path d="M91.5 112H78.5L85 120L91.5 112Z" fill="white"/>
<path d="M85 119.207L79.5505 112.5H90.4495L85 119.207Z" stroke="url(#paint1_linear_8158_51317)"/>
</g>
<path d="M79.8242 112H90.2344L89.3945 113H80.6102L79.8242 112Z" fill="white"/>
<defs>
<filter id="filter0_dd_8158_51317" x="31" y="67" width="108" height="58" filterUnits="userSpaceOnUse" color-interpolation-filters="sRGB">
<feFlood flood-opacity="0" result="BackgroundImageFix"/>
<feColorMatrix in="SourceAlpha" type="matrix" values="0 0 0 0 0 0 0 0 0 0 0 0 0 0 0 0 0 0 127 0" result="hardAlpha"/>
<feOffset dx="-4" dy="4"/>
<feGaussianBlur stdDeviation="4"/>
<feColorMatrix type="matrix" values="0 0 0 0 0.6 0 0 0 0 0.705882 0 0 0 0 0.972549 0 0 0 0.24 0"/>
<feBlend mode="normal" in2="BackgroundImageFix" result="effect1_dropShadow_8158_51317"/>
<feColorMatrix in="SourceAlpha" type="matrix" values="0 0 0 0 0 0 0 0 0 0 0 0 0 0 0 0 0 0 127 0" result="hardAlpha"/>
<feOffset dx="4" dy="-4"/>
<feGaussianBlur stdDeviation="4"/>
<feColorMatrix type="matrix" values="0 0 0 0 0.980392 0 0 0 0 0.52549 0 0 0 0 0.611765 0 0 0 0.16 0"/>
<feBlend mode="normal" in2="effect1_dropShadow_8158_51317" result="effect2_dropShadow_8158_51317"/>
<feBlend mode="normal" in="SourceGraphic" in2="effect2_dropShadow_8158_51317" result="shape"/>
</filter>
<filter id="filter1_dd_8158_51317" x="66.5" y="100" width="37" height="32" filterUnits="userSpaceOnUse" color-interpolation-filters="sRGB">
<feFlood flood-opacity="0" result="BackgroundImageFix"/>
<feColorMatrix in="SourceAlpha" type="matrix" values="0 0 0 0 0 0 0 0 0 0 0 0 0 0 0 0 0 0 127 0" result="hardAlpha"/>
<feOffset dx="-4" dy="4"/>
<feGaussianBlur stdDeviation="4"/>
<feColorMatrix type="matrix" values="0 0 0 0 0.6 0 0 0 0 0.705882 0 0 0 0 0.972549 0 0 0 0.24 0"/>
<feBlend mode="normal" in2="BackgroundImageFix" result="effect1_dropShadow_8158_51317"/>
<feColorMatrix in="SourceAlpha" type="matrix" values="0 0 0 0 0 0 0 0 0 0 0 0 0 0 0 0 0 0 127 0" result="hardAlpha"/>
<feOffset dx="4" dy="-4"/>
<feGaussianBlur stdDeviation="4"/>
<feColorMatrix type="matrix" values="0 0 0 0 0.980392 0 0 0 0 0.52549 0 0 0 0 0.611765 0 0 0 0.16 0"/>
<feBlend mode="normal" in2="effect1_dropShadow_8158_51317" result="effect2_dropShadow_8158_51317"/>
<feBlend mode="normal" in="SourceGraphic" in2="effect2_dropShadow_8158_51317" result="shape"/>
</filter>
<linearGradient id="paint0_linear_8158_51317" x1="48.7194" y1="94.1884" x2="126" y2="94.1884" gradientUnits="userSpaceOnUse">
<stop stop-color="#99B4F8"/>
<stop offset="1" stop-color="#FA869C"/>
</linearGradient>
<linearGradient id="paint1_linear_8158_51317" x1="78.8223" y1="116" x2="91.8223" y2="116" gradientUnits="userSpaceOnUse">
<stop stop-color="#C3A0D0"/>
<stop offset="1" stop-color="#CC9DC8"/>
</linearGradient>
</defs>
</svg>
